<svg width="16" height="16" viewBox="0 0 16 16" fill="none" xmlns="http://www.w3.org/2000/svg">
<g id="CaretUpDown">
<path id="Vector" d="M11.5306 10.4694C11.6005 10.539 11.656 10.6218 11.6939 10.713C11.7317 10.8042 11.7512 10.9019 11.7512 11.0006C11.7512 11.0993 11.7317 11.1971 11.6939 11.2882C11.656 11.3794 11.6005 11.4622 11.5306 11.5319L8.53063 14.5319C8.46095 14.6018 8.37816 14.6573 8.28699 14.6951C8.19583 14.733 8.09809 14.7524 7.99938 14.7524C7.90067 14.7524 7.80293 14.733 7.71176 14.6951C7.6206 14.6573 7.53781 14.6018 7.46813 14.5319L4.46813 11.5319C4.32723 11.391 4.24808 11.1999 4.24808 11.0006C4.24808 10.8013 4.32723 10.6103 4.46813 10.4694C4.60902 10.3285 4.80012 10.2493 4.99938 10.2493C5.19864 10.2493 5.38973 10.3285 5.53063 10.4694L8 12.9375L10.4694 10.4675C10.5392 10.3979 10.622 10.3427 10.7131 10.3051C10.8042 10.2675 10.9018 10.2483 11.0004 10.2485C11.099 10.2486 11.1965 10.2682 11.2875 10.3061C11.3785 10.344 11.4611 10.3995 11.5306 10.4694ZM5.53063 5.53186L8 3.06248L10.4694 5.53248C10.6103 5.67338 10.8014 5.75253 11.0006 5.75253C11.1999 5.75253 11.391 5.67338 11.5319 5.53248C11.6728 5.39158 11.7519 5.20049 11.7519 5.00123C11.7519 4.80197 11.6728 4.61088 11.5319 4.46998L8.53188 1.46998C8.4622 1.40006 8.37941 1.34458 8.28824 1.30673C8.19708 1.26888 8.09934 1.24939 8.00063 1.24939C7.90192 1.24939 7.80418 1.26888 7.71301 1.30673C7.62185 1.34458 7.53906 1.40006 7.46938 1.46998L4.46938 4.46998C4.32848 4.61088 4.24933 4.80197 4.24933 5.00123C4.24933 5.20049 4.32848 5.39158 4.46938 5.53248C4.61027 5.67338 4.80137 5.75253 5.00063 5.75253C5.19989 5.75253 5.39098 5.67338 5.53188 5.53248L5.53063 5.53186Z" fill="#89888C"/>
</g>
</svg>
